<svg width="27" height="27" viewBox="0 0 27 27" fill="none" xmlns="http://www.w3.org/2000/svg">
<path d="M19.3333 26H7.66667C4 26 1 23 1 19.3333V7.66667C1 4 4 1 7.66667 1H19.3333C23 1 26 4 26 7.66667V19.3333C26 23 23 26 19.3333 26Z" stroke="black" stroke-width="2" stroke-miterlimit="10" stroke-linecap="round" stroke-linejoin="round"/>
<path d="M13.5 19.3334C16.7216 19.3334 19.3333 16.7217 19.3333 13.5C19.3333 10.2784 16.7216 7.66669 13.5 7.66669C10.2783 7.66669 7.66663 10.2784 7.66663 13.5C7.66663 16.7217 10.2783 19.3334 13.5 19.3334Z" stroke="black" stroke-width="2" stroke-miterlimit="10" stroke-linecap="round" stroke-linejoin="round"/>
<path d="M20.1667 6.83335C20.6269 6.83335 21 6.46026 21 6.00002C21 5.53978 20.6269 5.16669 20.1667 5.16669C19.7065 5.16669 19.3334 5.53978 19.3334 6.00002C19.3334 6.46026 19.7065 6.83335 20.1667 6.83335Z" stroke="black" stroke-width="2" stroke-miterlimit="10" stroke-linecap="round" stroke-linejoin="round"/>
</svg>
