<svg width="25" height="30" viewBox="0 0 25 30" fill="none" xmlns="http://www.w3.org/2000/svg">
<path fill-rule="evenodd" clip-rule="evenodd" d="M12.5 30C12.5 30 -2.86102e-07 19.4037 -2.86102e-07 12.5C-2.86102e-07 9.18479 1.31699 6.00537 3.66119 3.66117C6.0054 1.31696 9.18479 0 12.5 0C15.8152 0 18.9946 1.31696 21.3388 3.66117C23.683 6.00537 25 9.18479 25 12.5C25 19.4037 12.5 30 12.5 30ZM12.5 2.5C9.84783 2.5 7.30429 3.55357 5.42892 5.42893C3.55356 7.3043 2.5 9.84783 2.5 12.5C2.5 18.0225 12.5 26.25 12.5 26.25C12.5 26.25 22.5 18.0225 22.5 12.5C22.5 9.84783 21.4464 7.3043 19.5711 5.42893C17.6957 3.55357 15.1522 2.5 12.5 2.5ZM12.5 17.5C11.5111 17.5 10.5444 17.2068 9.72214 16.6574C8.89989 16.1079 8.25899 15.327 7.88055 14.4134C7.50212 13.4998 7.4032 12.4944 7.59613 11.5245C7.78906 10.5546 8.26528 9.66373 8.96454 8.96446C9.6638 8.2652 10.5546 7.789 11.5245 7.59607C12.4944 7.40315 13.4998 7.50216 14.4135 7.8806C15.3271 8.25904 16.108 8.8999 16.6574 9.72215C17.2068 10.5444 17.5 11.5111 17.5 12.5C17.5 13.8261 16.9731 15.0979 16.0355 16.0355C15.0978 16.9732 13.8261 17.5 12.5 17.5ZM12.5 10C12.0055 10 11.5223 10.1466 11.1111 10.4213C10.7 10.696 10.3795 11.0865 10.1903 11.5433C10.0011 12.0001 9.9516 12.5028 10.0481 12.9877C10.1445 13.4727 10.3826 13.9181 10.7323 14.2678C11.0819 14.6174 11.5274 14.8555 12.0123 14.952C12.4973 15.0484 12.9999 14.9989 13.4567 14.8097C13.9135 14.6205 14.304 14.3 14.5787 13.8889C14.8534 13.4778 15 12.9945 15 12.5C15 11.837 14.7366 11.2011 14.2677 10.7322C13.7989 10.2634 13.163 10 12.5 10Z" fill="#101010"/>
</svg>
