<svg width="27" height="29" viewBox="0 0 27 29" fill="none" xmlns="http://www.w3.org/2000/svg">
<path d="M13.5 1C6.625 1 1 6.625 1 13.5C1 16.5357 2.16071 19.3929 3.94643 21.5357L1.89286 27.7857L8.41071 24.9286C9.92857 25.6429 11.7143 26 13.5 26C20.375 26 26 20.375 26 13.5C26 6.625 20.375 1 13.5 1Z" stroke="black" stroke-width="2" stroke-miterlimit="10" stroke-linecap="round" stroke-linejoin="round"/>
<path d="M20.375 18.0536C20.6429 17.25 20.6429 16.625 20.5536 16.4464C20.4643 16.2679 20.2857 16.2679 19.9286 16.0893C19.5714 15.9107 17.9643 15.1071 17.6964 15.0179C17.4286 14.9286 17.0714 14.9286 16.8929 15.2857C16.5357 15.7321 16.2679 16.1786 16 16.4464C15.8214 16.625 15.4643 16.7143 15.1964 16.5357C14.8393 16.3571 13.7679 16 12.5179 14.9286C11.5357 14.0357 10.9107 12.9643 10.6429 12.6071C10.4643 12.25 10.6429 12.0714 10.8214 11.8929C11 11.7143 11.1786 11.5357 11.3571 11.3571C11.5357 11.1786 11.625 11.0893 11.7143 10.8214C11.8036 10.6429 11.7143 10.375 11.625 10.1964C11.5357 10.0179 10.9107 8.41071 10.6429 7.78571C10.4643 7.25 10.2857 7.25 9.92857 7.25C9.83929 7.25 9.66071 7.25 9.57143 7.25C9.125 7.25 8.67857 7.33929 8.41071 7.69643C8.05357 8.05357 7.25 8.85714 7.25 10.4643C7.25 12.0714 8.41071 13.6786 8.58929 13.8571C8.76786 14.0357 10.9107 17.4286 14.2143 18.8571C16.8036 19.9286 17.6071 19.8393 18.1429 19.75C19.0357 19.4821 20.1071 18.8571 20.375 18.0536Z" stroke="black" stroke-width="2"/>
</svg>
